<svg xmlns="http://www.w3.org/2000/svg" viewBox="0 0 512 512"><path d="M416.666 0H95.332C42.766 0 0 42.767 0 95.334v321.332C0 469.233 42.766 512 95.332 512h321.334C469.233 512 512 469.233 512 416.666V95.334C512 42.767 469.233 0 416.666 0zM400.6 391.5H111.4c-8.285 0-15-6.716-15-15s6.715-15 15-15h289.2c8.283 0 15 6.716 15 15s-6.717 15-15 15zm0-120.5H111.4c-8.285 0-15-6.716-15-15s6.715-15 15-15h289.2c8.283 0 15 6.716 15 15s-6.717 15-15 15zm0-120.5H111.4c-8.285 0-15-6.716-15-15s6.715-15 15-15h289.2c8.283 0 15 6.716 15 15s-6.717 15-15 15z"/></svg>